<svg width="1114" height="713" viewBox="0 0 1114 713" fill="none" xmlns="http://www.w3.org/2000/svg">
<g id="resume">
<path id="Vector" opacity="0.1" d="M1054.13 551.163C1027.57 605.973 973.61 642.623 917.71 666.793C872.954 686.017 825.644 698.642 777.26 704.273C767.993 705.373 758.697 706.226 749.37 706.833C725.538 708.386 701.629 708.36 677.8 706.753C663.467 705.8 649.183 704.276 634.95 702.183C585.494 694.968 537.278 680.928 491.68 660.463C478.52 654.536 465.627 648.066 453 641.053C431.91 629.364 411.703 616.149 392.54 601.513C388.3 598.273 384.113 594.963 379.98 591.583L378.28 590.193C375.03 587.513 371.81 584.773 368.54 582.113C363.105 577.56 357.335 573.422 351.28 569.733C350.87 569.493 350.46 569.253 350.04 569.023C348.92 568.373 347.78 567.763 346.62 567.183C344.23 565.978 341.78 564.897 339.28 563.943C327.73 559.543 315.36 557.943 302.82 558.213C300.74 558.213 298.66 558.353 296.57 558.493C293.65 558.693 290.72 558.993 287.8 559.373L286.72 559.523C277.415 560.84 268.215 562.815 259.19 565.433C245.25 569.433 231.56 574.433 217.78 578.943C211.93 580.873 206.07 582.713 200.16 584.363L198.86 584.723C190.455 587.087 181.898 588.878 173.25 590.083C153.598 592.596 133.637 590.988 114.64 585.363L113.98 585.173L112.76 584.813L111.09 584.293C108.29 583.413 105.513 582.45 102.76 581.403L101.09 580.763C98.4233 579.736 95.8133 578.633 93.26 577.453L91.59 576.693C88.9233 575.453 86.3133 574.143 83.76 572.763C82.84 572.283 81.93 571.763 81.03 571.273C78.31 569.753 75.6433 568.16 73.03 566.493C70.2567 564.726 67.5433 562.883 64.89 560.963C63.6633 560.083 62.45 559.18 61.25 558.253C54.3325 552.962 47.8546 547.12 41.88 540.783C41.55 540.453 41.24 540.113 40.93 539.783C39.34 538.063 37.78 536.313 36.27 534.523C35.71 533.863 35.15 533.203 34.6 532.523C32.8067 530.336 31.0767 528.1 29.41 525.813C29.16 525.483 28.92 525.143 28.68 524.813C21.8474 515.364 16.1829 505.123 11.81 494.313C11.67 493.983 11.54 493.643 11.42 493.313C10.0867 489.88 8.87 486.39 7.77 482.843C7.32 481.363 6.89 479.843 6.51 478.363C6.38 477.923 6.26 477.473 6.15 477.033C0.629998 455.303 0 432.713 0 410.253C0 407.633 0 405.016 0 402.403C0.16 366.073 0.719998 329.123 6.08 293.293C6.08 293.043 6.15 292.793 6.19 292.553C7.98396 280.491 10.4241 268.534 13.5 256.733C16.7192 244.351 20.8333 232.219 25.81 220.433C38.14 191.433 56.07 165.043 75.98 140.583C99.98 111.153 127.48 83.9931 158.11 61.5831C162.51 58.3631 166.97 55.2365 171.49 52.2031L173.58 50.8331C174.31 50.3431 175.04 49.8331 175.77 49.4031C177.27 48.4031 178.77 47.4631 180.29 46.5131L181.99 45.4531L185.23 43.4531L186.23 42.8831L187.96 41.8831L189.67 40.8831C191.67 39.7031 193.693 38.5498 195.74 37.4231C204.48 32.5498 213.427 28.0965 222.58 24.0631C225.28 22.8698 227.997 21.7198 230.73 20.6131C243.14 15.559 255.887 11.3788 268.88 8.10313C273.68 6.88979 278.51 5.82313 283.37 4.90313C289.103 3.79646 294.867 2.8798 300.66 2.15313C309.879 0.9932 319.151 0.302302 328.44 0.0831212C393.76 -1.50688 459.74 19.7531 510.93 60.5031C531.33 76.7431 549.66 95.9731 572.57 108.423C592.57 119.263 615.98 123.753 637.4 115.223C655.1 108.173 666.62 104.673 686.5 105.743C727.637 108.06 768.192 116.542 806.81 130.903C808.37 131.473 809.93 132.063 811.48 132.653C912.19 171.203 998.78 247.753 1043.76 346.123C1044.95 348.723 1046.1 351.343 1047.23 353.983C1074.06 416.633 1083.74 490.083 1054.13 551.163Z" fill="#62AC43"/>
<path id="Vector_2" opacity="0.1" d="M818.28 348.99H790.39V376.88H818.28V348.99Z" fill="#62AC43"/>
<path id="Vector_3" opacity="0.1" d="M924.77 348.99H896.88V376.88H924.77V348.99Z" fill="#62AC43"/>
<path id="Vector_4" opacity="0.1" d="M818.28 417.79H790.39V445.68H818.28V417.79Z" fill="#62AC43"/>
<path id="Vector_5" opacity="0.1" d="M924.77 417.79H896.88V445.68H924.77V417.79Z" fill="#62AC43"/>
<path id="Vector_6" opacity="0.1" d="M818.28 486.6H790.39V514.49H818.28V486.6Z" fill="#62AC43"/>
<path id="Vector_7" opacity="0.1" d="M924.77 486.6H896.88V514.49H924.77V486.6Z" fill="#62AC43"/>
<path id="Vector_8" opacity="0.1" d="M818.28 555.41H790.39V583.3H818.28V555.41Z" fill="#62AC43"/>
<path id="Vector_9" opacity="0.1" d="M924.77 555.41H896.88V583.3H924.77V555.41Z" fill="#62AC43"/>
<path id="Vector_10" opacity="0.1" d="M818.28 624.21H790.39V652.1H818.28V624.21Z" fill="#62AC43"/>
<path id="Vector_11" opacity="0.1" d="M924.77 624.21H896.88V652.1H924.77V624.21Z" fill="#62AC43"/>
<path id="Vector_12" opacity="0.1" d="M700.4 78.4103C700.4 78.4103 720.54 39.3203 744.4 59.4803C744.4 59.4803 749.59 61.3703 749.2 66.8703C749.2 66.8703 747.2 65.7702 745.61 69.9702C745.03 71.4563 744.278 72.8692 743.37 74.1803C742.14 75.9558 740.368 77.2854 738.32 77.9702V77.9702C738.32 77.9702 727.64 85.9703 707.85 79.8003C707.85 79.8003 702.26 80.6103 701.36 79.9103L707.86 75.1503C707.86 75.1503 711.16 80.0603 715.99 80.6203C715.99 80.6203 707.87 75.5103 708.79 74.4003C708.98 74.1803 712.35 72.0403 712.35 72.0403C712.35 72.0403 718.13 80.5403 725.62 81.1703C725.62 81.1703 715.13 76.3803 713.62 71.1703L718.9 68.2502C718.9 68.2502 724.57 77.5303 733.08 78.5703C733.08 78.5703 722.28 73.1903 720.08 67.6803L725.66 65.5002C725.66 65.5002 731.37 74.4503 738.45 75.2703C738.45 75.2703 726.6 67.7903 726.97 65.0903C726.97 65.0903 732.22 63.4003 733.83 63.6203C733.83 63.6203 738.07 69.9503 742.23 70.0603C742.23 70.0603 734.84 64.2203 735.33 63.3203C735.33 63.3203 742.74 62.9403 746.61 64.7303C746.61 64.7303 741.09 61.6603 735.32 62.1603C736.912 60.3499 738.997 59.0432 741.32 58.4003C741.32 58.4003 737.24 56.7203 733.5 62.2703C733.5 62.2703 727.73 62.8002 727.02 63.4402C727.02 63.4402 729.93 57.4403 733.53 54.8903C733.53 54.8903 728.17 55.8302 725.53 63.9702L719.86 66.0703C719.86 66.0703 723.3 57.9403 726.33 55.4303C726.33 55.4303 721.02 57.2303 718.48 66.7103L713.27 69.5303C713.27 69.5303 715.7 62.2903 718.47 58.7703C718.47 58.7703 713.9 61.5103 711.81 70.3903L708.55 72.6803C708.55 72.6803 710.42 67.4302 711.09 65.9702C711.76 64.5102 711.43 64.2103 711.43 64.2103C709.164 66.8905 707.689 70.1489 707.17 73.6203C707.17 73.6203 700.75 78.7703 700.4 78.4103Z" fill="#62AC43"/>
<path id="Vector_13" d="M270.736 240.062H265.439V241.046H270.736V240.062Z" fill="#313131"/>
<path id="Vector_14" d="M287.454 240.062H282.158V241.046H287.454V240.062Z" fill="#313131"/>
<path id="Vector_15" d="M284.519 285.482C283.881 285.529 283.267 285.745 282.739 286.107C285.42 285.94 288.085 285.57 290.71 285L284.519 285.482Z" fill="#313131"/>
<path id="Vector_16" d="M291.763 207.039C292.115 205.869 290.608 204.381 288.398 203.717C286.187 203.052 284.11 203.462 283.758 204.633C283.406 205.803 284.913 207.29 287.124 207.955C289.334 208.619 291.412 208.209 291.763 207.039Z" fill="#313131"/>
<path id="Vector_17" d="M279.223 287.7C272.968 287.707 266.756 286.654 260.852 284.588L260.338 284.405C247.97 279.935 237.589 271.224 231.039 259.82C224.49 248.416 222.198 235.059 224.57 222.124C226.942 209.189 233.826 197.515 243.996 189.177C254.165 180.84 266.963 176.38 280.112 176.59C293.261 176.8 305.909 181.668 315.807 190.326C325.705 198.984 332.212 210.873 334.169 223.877C336.127 236.881 333.408 250.158 326.498 261.347C319.587 272.535 308.932 280.91 296.428 284.982C296.078 285.093 295.749 285.198 295.415 285.298C294.018 285.727 292.537 286.113 291.023 286.442C288.324 287.027 285.585 287.407 282.83 287.579C281.646 287.659 280.43 287.7 279.223 287.7ZM279.223 179.521C266.842 179.522 254.858 183.89 245.379 191.854C235.9 199.819 229.533 210.871 227.398 223.066C225.262 235.262 227.495 247.82 233.704 258.532C239.913 269.243 249.7 277.423 261.344 281.631L261.831 281.805C267.421 283.761 273.301 284.756 279.223 284.75C280.363 284.75 281.513 284.711 282.64 284.635C285.249 284.472 287.843 284.112 290.398 283.558C291.83 283.248 293.23 282.883 294.559 282.474C294.888 282.376 295.201 282.277 295.513 282.177C307.423 278.298 317.558 270.298 324.097 259.615C330.637 248.932 333.151 236.266 331.188 223.896C329.225 211.525 322.913 200.26 313.388 192.126C303.863 183.992 291.749 179.522 279.223 179.521V179.521Z" fill="#BEBEBE"/>
<path id="Vector_18" d="M492.054 552.252H200.829C197.163 552.248 193.648 550.789 191.055 548.197C188.462 545.604 187.004 542.089 187 538.423V143.073C187.004 139.407 188.462 135.892 191.055 133.299C193.648 130.707 197.163 129.248 200.829 129.244H492.054C495.72 129.248 499.235 130.707 501.828 133.299C504.42 135.892 505.879 139.407 505.883 143.073V538.423C505.879 542.089 504.42 545.604 501.828 548.197C499.235 550.789 495.72 552.248 492.054 552.252V552.252ZM200.829 130.871C197.594 130.875 194.492 132.162 192.205 134.449C189.917 136.737 188.631 139.838 188.627 143.073V538.423C188.631 541.658 189.917 544.759 192.205 547.047C194.492 549.334 197.594 550.621 200.829 550.625H492.054C495.289 550.621 498.39 549.334 500.678 547.047C502.965 544.759 504.252 541.658 504.256 538.423V143.073C504.252 139.838 502.965 136.737 500.678 134.449C498.39 132.162 495.289 130.875 492.054 130.871H200.829Z" fill="#BEBEBE"/>
<g id="resume01">
<path id="Vector_19" d="M492.054 552.252H200.829C197.163 552.248 193.648 550.789 191.055 548.197C188.462 545.604 187.004 542.089 187 538.423V143.073C187.004 139.407 188.462 135.892 191.055 133.299C193.648 130.707 197.163 129.248 200.829 129.244H492.054C495.72 129.248 499.235 130.707 501.828 133.299C504.42 135.892 505.879 139.407 505.883 143.073V538.423C505.879 542.089 504.42 545.604 501.828 548.197C499.235 550.789 495.72 552.248 492.054 552.252Z" fill="white"/>
<path id="Vector_20" d="M333.313 232.135C333.313 243.553 329.701 254.679 322.994 263.919C316.286 273.16 306.828 280.041 295.972 283.579C295.647 283.682 295.323 283.786 294.993 283.884C293.587 284.317 292.161 284.686 290.71 285C288.085 285.57 285.42 285.94 282.739 286.107C281.574 286.185 280.402 286.225 279.223 286.225C273.134 286.231 267.087 285.207 261.339 283.196C261.172 283.137 261.005 283.078 260.843 283.019C251.53 279.655 243.319 273.8 237.104 266.092C230.89 258.383 226.91 249.117 225.6 239.302C224.289 229.488 225.697 219.502 229.67 210.432C233.643 201.363 240.03 193.558 248.134 187.868C256.237 182.179 265.747 178.822 275.627 178.165C285.506 177.507 295.377 179.574 304.163 184.14C312.949 188.706 320.313 195.596 325.453 204.059C330.593 212.522 333.312 222.233 333.313 232.135V232.135Z" fill="white"/>
<path id="Vector_21" d="M277.927 267.972C292.462 267.972 304.244 256.189 304.244 241.655C304.244 227.121 292.462 215.338 277.927 215.338C263.393 215.338 251.611 227.121 251.611 241.655C251.611 256.189 263.393 267.972 277.927 267.972Z" fill="#62AC43"/>
<path id="Vector_22" d="M279.464 255.834L279.491 254.851C277.662 254.8 276.049 254.685 274.837 253.8C274.493 253.534 274.211 253.198 274.009 252.814C273.806 252.43 273.69 252.006 273.666 251.573C273.644 251.308 273.684 251.042 273.783 250.795C273.881 250.548 274.035 250.327 274.233 250.15C274.69 249.872 275.215 249.723 275.75 249.718C276.286 249.714 276.813 249.853 277.275 250.123L278.089 250.496L276.529 239.093L275.554 239.226L276.882 248.926C276.338 248.724 275.753 248.662 275.18 248.745C274.606 248.827 274.062 249.052 273.598 249.399C273.285 249.671 273.04 250.013 272.881 250.396C272.723 250.779 272.655 251.194 272.683 251.607C272.712 252.19 272.867 252.759 273.139 253.275C273.411 253.791 273.792 254.241 274.257 254.594C275.814 255.732 277.838 255.789 279.464 255.834Z" fill="#313131"/>
<path id="Vector_23" d="M285.404 278.446C285.474 278.122 285.51 277.793 285.513 277.462C285.511 276.224 285.018 275.037 284.142 274.161C283.267 273.286 282.08 272.793 280.841 272.791H273.957C272.718 272.792 271.531 273.284 270.655 274.16C269.779 275.036 269.287 276.224 269.286 277.462C269.285 277.795 269.322 278.126 269.394 278.451C266.795 279.269 264.339 280.485 262.111 282.055C261.679 282.355 261.251 282.679 260.843 283.019C261.005 283.078 261.172 283.137 261.339 283.196C267.087 285.207 273.134 286.231 279.223 286.225C280.403 286.225 281.575 286.185 282.739 286.107C285.42 285.94 288.085 285.57 290.71 285C292.161 284.686 293.587 284.317 294.993 283.884C292.211 281.423 288.945 279.57 285.404 278.446V278.446Z" fill="#313131"/>
<path id="Vector_24" d="M301.795 235.403L256.078 218.678C255.588 218.499 255.189 218.133 254.969 217.66C254.75 217.186 254.727 216.645 254.906 216.156L255.061 215.424C258.631 205.665 270.465 199.522 280.225 203.093L294.294 208.239C304.053 211.81 308.295 223.367 304.725 233.126L304.318 234.232C304.139 234.722 303.772 235.12 303.299 235.34C302.826 235.56 302.285 235.582 301.795 235.403V235.403Z" fill="#313131"/>
<path id="Vector_25" d="M304.258 236.331C240.537 238.683 234.969 230.676 254.384 218.086L258.503 210.507L305.709 227.717L304.258 236.331Z" fill="#313131"/>
<path id="Vector_26" d="M435.676 231.925H353.27C351.542 231.922 349.886 231.235 348.665 230.012C347.444 228.79 346.758 227.133 346.758 225.405C346.758 223.678 347.444 222.021 348.665 220.798C349.886 219.576 351.542 218.888 353.27 218.886H435.676C436.533 218.885 437.381 219.053 438.173 219.38C438.965 219.707 439.685 220.187 440.291 220.793C440.897 221.398 441.378 222.117 441.706 222.909C442.035 223.7 442.203 224.548 442.203 225.405C442.203 226.262 442.035 227.11 441.706 227.902C441.378 228.693 440.897 229.413 440.291 230.018C439.685 230.623 438.965 231.103 438.173 231.431C437.381 231.758 436.533 231.926 435.676 231.925V231.925Z" fill="#E6E6E6"/>
<path id="Vector_27" d="M462.568 253.927H353.27C351.542 253.925 349.886 253.237 348.665 252.015C347.444 250.792 346.758 249.135 346.758 247.408C346.758 245.68 347.444 244.023 348.665 242.801C349.886 241.578 351.542 240.891 353.27 240.888H462.568C464.296 240.891 465.952 241.578 467.173 242.801C468.394 244.023 469.079 245.68 469.079 247.408C469.079 249.135 468.394 250.792 467.173 252.015C465.952 253.237 464.296 253.925 462.568 253.927V253.927Z" fill="#E6E6E6"/>
<path id="Vector_28" d="M435.556 338.316H230.315C229.458 338.317 228.609 338.149 227.817 337.822C227.026 337.495 226.306 337.015 225.7 336.41C225.093 335.804 224.612 335.085 224.284 334.294C223.956 333.502 223.787 332.654 223.787 331.797C223.787 330.94 223.956 330.092 224.284 329.3C224.612 328.509 225.093 327.79 225.7 327.184C226.306 326.579 227.026 326.099 227.817 325.772C228.609 325.444 229.458 325.277 230.315 325.278H435.556C437.284 325.28 438.94 325.968 440.161 327.19C441.382 328.412 442.067 330.069 442.067 331.797C442.067 333.525 441.382 335.182 440.161 336.404C438.94 337.626 437.284 338.314 435.556 338.316V338.316Z" fill="#E6E6E6"/>
<path id="Vector_29" d="M462.448 360.319H230.315C229.458 360.32 228.609 360.152 227.817 359.825C227.026 359.498 226.306 359.018 225.7 358.412C225.093 357.807 224.612 357.088 224.284 356.296C223.956 355.505 223.787 354.656 223.787 353.8C223.787 352.943 223.956 352.094 224.284 351.303C224.612 350.511 225.093 349.792 225.7 349.187C226.306 348.581 227.026 348.101 227.817 347.774C228.609 347.447 229.458 347.279 230.315 347.28H462.448C463.305 347.279 464.154 347.447 464.946 347.774C465.737 348.101 466.457 348.581 467.063 349.187C467.67 349.792 468.15 350.511 468.479 351.303C468.807 352.094 468.976 352.943 468.976 353.8C468.976 354.656 468.807 355.505 468.479 356.296C468.15 357.088 467.67 357.807 467.063 358.412C466.457 359.018 465.737 359.498 464.946 359.825C464.154 360.152 463.305 360.32 462.448 360.319V360.319Z" fill="#E6E6E6"/>
<path id="Vector_30" d="M435.556 410.889H230.315C228.586 410.889 226.927 410.202 225.705 408.98C224.482 407.757 223.795 406.099 223.795 404.37C223.795 402.641 224.482 400.983 225.705 399.76C226.927 398.538 228.586 397.851 230.315 397.851H435.556C437.285 397.851 438.943 398.538 440.166 399.76C441.389 400.983 442.075 402.641 442.075 404.37C442.075 406.099 441.389 407.757 440.166 408.98C438.943 410.202 437.285 410.889 435.556 410.889V410.889Z" fill="#E6E6E6"/>
<path id="Vector_31" d="M462.448 432.892H230.315C228.586 432.892 226.927 432.205 225.705 430.982C224.482 429.76 223.795 428.102 223.795 426.373C223.795 424.644 224.482 422.985 225.705 421.763C226.927 420.54 228.586 419.853 230.315 419.853H462.448C464.177 419.853 465.835 420.54 467.058 421.763C468.281 422.985 468.967 424.644 468.967 426.373C468.967 428.102 468.281 429.76 467.058 430.982C465.835 432.205 464.177 432.892 462.448 432.892V432.892Z" fill="#E6E6E6"/>
<path id="Vector_32" d="M435.556 483.462H230.315C228.586 483.462 226.927 482.776 225.705 481.553C224.482 480.33 223.795 478.672 223.795 476.943C223.795 475.214 224.482 473.556 225.705 472.333C226.927 471.111 228.586 470.424 230.315 470.424H435.556C437.285 470.424 438.943 471.111 440.166 472.333C441.389 473.556 442.075 475.214 442.075 476.943C442.075 478.672 441.389 480.33 440.166 481.553C438.943 482.776 437.285 483.462 435.556 483.462V483.462Z" fill="#E6E6E6"/>
<path id="Vector_33" d="M462.448 505.465H230.315C228.586 505.465 226.927 504.778 225.705 503.555C224.482 502.333 223.795 500.675 223.795 498.946C223.795 497.217 224.482 495.558 225.705 494.336C226.927 493.113 228.586 492.426 230.315 492.426H462.448C464.177 492.426 465.835 493.113 467.058 494.336C468.281 495.558 468.967 497.217 468.967 498.946C468.967 500.675 468.281 502.333 467.058 503.555C465.835 504.778 464.177 505.465 462.448 505.465V505.465Z" fill="#E6E6E6"/>
</g>
<path id="Vector_34" d="M871.134 453.008L579.909 453.008C576.243 453.004 572.728 451.546 570.135 448.953C567.543 446.36 566.084 442.845 566.08 439.179L566.08 43.8293C566.084 40.1629 567.542 36.6478 570.135 34.0553C572.727 31.4627 576.242 30.0044 579.909 30.0002L871.133 30C874.8 30.0041 878.315 31.4624 880.908 34.055C883.5 36.6476 884.958 40.1626 884.963 43.8291L884.963 439.179C884.959 442.845 883.5 446.36 880.908 448.953C878.315 451.545 874.8 453.004 871.134 453.008V453.008Z" fill="white"/>
<path id="Vector_35" d="M871.134 453.008L579.909 453.008C576.243 453.004 572.728 451.546 570.135 448.953C567.543 446.36 566.084 442.845 566.08 439.179L566.08 43.8293C566.084 40.1629 567.542 36.6478 570.135 34.0553C572.727 31.4627 576.242 30.0044 579.909 30.0002L871.133 30C874.8 30.0041 878.315 31.4624 880.908 34.055C883.5 36.6476 884.958 40.1626 884.963 43.8291L884.963 439.179C884.959 442.845 883.5 446.36 880.908 448.953C878.315 451.545 874.8 453.004 871.134 453.008V453.008ZM579.909 31.6272C576.674 31.6309 573.572 32.9176 571.285 35.2052C568.997 37.4927 567.71 40.5943 567.707 43.8293L567.707 439.179C567.711 442.414 568.998 445.515 571.285 447.803C573.573 450.091 576.674 451.377 579.909 451.381L871.134 451.381C874.369 451.377 877.47 450.09 879.758 447.803C882.045 445.515 883.332 442.414 883.336 439.179L883.336 43.8291C883.332 40.594 882.045 37.4925 879.758 35.2049C877.47 32.9174 874.369 31.6306 871.133 31.627L579.909 31.6272Z" fill="#BEBEBE"/>
<path id="Vector_36" d="M712.53 132.352C712.53 143.05 709.357 153.508 703.414 162.403C697.47 171.298 689.023 178.23 679.139 182.324C669.256 186.418 658.38 187.489 647.888 185.402C637.395 183.315 627.757 178.164 620.193 170.599C612.628 163.035 607.477 153.397 605.39 142.904C603.303 132.412 604.374 121.536 608.468 111.653C612.562 101.769 619.494 93.3217 628.389 87.3782C637.284 81.4348 647.742 78.2625 658.44 78.2625C672.784 78.267 686.539 83.9671 696.682 94.1099C706.825 104.253 712.525 118.008 712.53 132.352V132.352Z" fill="white"/>
<path id="Vector_37" d="M683.439 141.607C682.848 176.2 631.392 176.195 630.806 141.606C631.397 107.014 682.853 107.02 683.439 141.607Z" fill="#62AC43"/>
<path id="Vector_38" d="M656.078 152.344L656.051 151.361C662.829 152.266 664.288 143.865 657.453 147.006L659.013 135.603L659.987 135.736L658.66 145.436C665.858 144.365 663.195 153.327 656.078 152.344Z" fill="#313131"/>
<path id="Vector_39" d="M670.103 136.573H664.806V137.556H670.103V136.573Z" fill="#313131"/>
<path id="Vector_40" d="M653.384 136.573H648.087V137.556H653.384V136.573Z" fill="#313131"/>
<path id="Vector_41" d="M665.654 178.402C666.686 171.434 658.528 172.811 654.211 172.742C653.515 172.744 652.828 172.902 652.201 173.203C651.573 173.504 651.02 173.942 650.583 174.483C650.146 175.025 649.835 175.658 649.674 176.335C649.512 177.012 649.503 177.716 649.648 178.397C646.306 179.43 643.212 181.137 640.556 183.413C651.749 187.316 663.911 187.45 675.188 183.796C672.439 181.328 669.186 179.487 665.654 178.402Z" fill="#313131"/>
<path id="Vector_42" d="M644.75 129.16C649.627 126.341 655.542 128.504 660.58 129.686C670.138 132.624 683.542 128.945 684.704 117.559C685.913 106.97 671.428 101.068 666.798 111.607L668.146 111.431C653.13 89.1157 627.011 89.962 627.183 120.642C627.127 121.59 628.602 121.586 628.658 120.641C628.105 102.562 640.07 90.2038 656.983 101.822C660.761 104.779 664.091 108.267 666.872 112.176C668.634 114.15 669.016 105.648 677.447 107.875C686.725 111.47 683.698 124.755 675.405 127.672C665.158 132.907 654.06 122.757 644.006 127.886C643.844 127.988 643.728 128.149 643.682 128.335C643.637 128.521 643.666 128.717 643.762 128.883C643.859 129.048 644.016 129.169 644.2 129.221C644.384 129.273 644.582 129.251 644.75 129.16V129.16Z" fill="#313131"/>
<path id="Vector_43" d="M658.44 187.917C644.472 187.905 631.021 182.628 620.771 173.139C610.521 163.65 604.225 150.646 603.137 136.72C602.05 122.794 606.252 108.97 614.905 98.0054C623.559 87.0405 636.027 79.7403 649.824 77.5608C663.621 75.3813 677.733 78.4827 689.345 86.2465C700.957 94.0102 709.215 105.866 712.473 119.449C715.732 133.031 713.75 147.343 706.924 159.53C700.098 171.717 688.929 180.882 675.644 185.199C670.089 187.006 664.282 187.923 658.44 187.917ZM658.44 79.7375C648.032 79.736 637.857 82.8212 629.202 88.6028C620.547 94.3844 613.801 102.603 609.818 112.218C605.834 121.834 604.791 132.415 606.821 142.624C608.852 152.832 613.863 162.209 621.223 169.569C628.583 176.929 637.96 181.94 648.168 183.971C658.377 186.001 668.958 184.958 678.574 180.974C688.189 176.991 696.408 170.245 702.189 161.59C707.971 152.935 711.056 142.76 711.054 132.352C711.039 118.403 705.49 105.029 695.627 95.1653C685.763 85.3016 672.389 79.7533 658.44 79.7375V79.7375Z" fill="#BEBEBE"/>
<path id="Vector_44" d="M814.756 132.68L732.349 132.68C730.62 132.68 728.962 131.993 727.74 130.771C726.517 129.548 725.83 127.89 725.83 126.161C725.83 124.432 726.517 122.774 727.74 121.551C728.962 120.329 730.62 119.642 732.349 119.642L814.756 119.642C816.485 119.642 818.143 120.328 819.366 121.551C820.588 122.774 821.275 124.432 821.275 126.161C821.275 127.89 820.588 129.548 819.366 130.771C818.143 131.993 816.485 132.68 814.756 132.68V132.68Z" fill="#E6E6E6"/>
<path id="Vector_45" d="M841.648 154.683L732.349 154.683C731.493 154.684 730.644 154.516 729.852 154.189C729.06 153.862 728.341 153.382 727.734 152.776C727.128 152.171 726.647 151.452 726.319 150.66C725.991 149.869 725.822 149.02 725.822 148.164C725.822 147.307 725.991 146.458 726.319 145.667C726.647 144.875 727.128 144.156 727.734 143.551C728.341 142.946 729.06 142.465 729.852 142.138C730.644 141.811 731.493 141.643 732.349 141.644L841.648 141.644C843.377 141.644 845.035 142.331 846.258 143.554C847.48 144.776 848.167 146.435 848.167 148.164C848.167 149.893 847.48 151.551 846.258 152.773C845.035 153.996 843.377 154.683 841.648 154.683Z" fill="#E6E6E6"/>
<path id="Vector_46" d="M814.636 239.072L609.395 239.072C607.667 239.07 606.011 238.382 604.79 237.16C603.569 235.938 602.883 234.281 602.883 232.553C602.883 230.825 603.569 229.168 604.79 227.946C606.011 226.724 607.667 226.036 609.395 226.034L814.636 226.033C816.365 226.033 818.023 226.72 819.246 227.943C820.468 229.166 821.155 230.824 821.155 232.553C821.155 234.282 820.468 235.94 819.246 237.163C818.023 238.385 816.365 239.072 814.636 239.072V239.072Z" fill="#E6E6E6"/>
<path id="Vector_47" d="M841.528 261.075L609.395 261.075C608.538 261.076 607.689 260.908 606.897 260.581C606.105 260.254 605.386 259.774 604.779 259.168C604.173 258.563 603.692 257.844 603.364 257.052C603.036 256.261 602.867 255.412 602.867 254.556C602.867 253.699 603.036 252.85 603.364 252.059C603.692 251.267 604.173 250.548 604.779 249.943C605.386 249.337 606.105 248.857 606.897 248.53C607.689 248.203 608.538 248.035 609.395 248.036L841.528 248.036C843.257 248.036 844.915 248.723 846.138 249.946C847.361 251.168 848.047 252.826 848.047 254.555C848.047 256.284 847.361 257.943 846.138 259.165C844.915 260.388 843.257 261.075 841.528 261.075V261.075Z" fill="#E6E6E6"/>
<path id="Vector_48" d="M814.636 311.645L609.395 311.645C607.667 311.643 606.011 310.955 604.79 309.733C603.569 308.511 602.883 306.854 602.883 305.126C602.883 303.398 603.569 301.741 604.79 300.519C606.011 299.297 607.667 298.609 609.395 298.607L814.636 298.606C816.365 298.606 818.023 299.293 819.246 300.516C820.468 301.739 821.155 303.397 821.155 305.126C821.155 306.855 820.468 308.513 819.246 309.736C818.023 310.958 816.365 311.645 814.636 311.645Z" fill="#E6E6E6"/>
<path id="Vector_49" d="M841.528 333.648L609.395 333.648C608.538 333.649 607.689 333.481 606.897 333.154C606.105 332.827 605.386 332.347 604.779 331.741C604.173 331.136 603.692 330.417 603.364 329.625C603.036 328.834 602.867 327.985 602.867 327.129C602.867 326.272 603.036 325.423 603.364 324.632C603.692 323.84 604.173 323.121 604.779 322.516C605.386 321.91 606.105 321.43 606.897 321.103C607.689 320.776 608.538 320.608 609.395 320.609L841.528 320.609C843.257 320.609 844.915 321.296 846.138 322.519C847.361 323.741 848.047 325.399 848.047 327.128C848.047 328.857 847.361 330.516 846.138 331.738C844.915 332.961 843.257 333.648 841.528 333.648V333.648Z" fill="#E6E6E6"/>
<path id="Vector_50" d="M814.636 384.218L609.395 384.218C607.666 384.218 606.008 383.531 604.785 382.309C603.562 381.086 602.875 379.428 602.875 377.699C602.875 375.97 603.562 374.312 604.785 373.089C606.008 371.866 607.666 371.18 609.395 371.18L814.636 371.179C816.365 371.179 818.023 371.866 819.246 373.089C820.469 374.312 821.156 375.97 821.156 377.699C821.156 379.428 820.469 381.086 819.246 382.309C818.023 383.531 816.365 384.218 814.636 384.218V384.218Z" fill="#E6E6E6"/>
<path id="Vector_51" d="M841.528 406.221L609.395 406.221C607.666 406.221 606.008 405.534 604.785 404.311C603.562 403.089 602.875 401.431 602.875 399.702C602.875 397.973 603.562 396.314 604.785 395.092C606.008 393.869 607.666 393.182 609.395 393.182L841.528 393.182C843.257 393.182 844.916 393.869 846.138 395.092C847.361 396.314 848.048 397.972 848.048 399.701C848.048 401.43 847.361 403.089 846.138 404.311C844.916 405.534 843.257 406.221 841.528 406.221V406.221Z" fill="#E6E6E6"/>
<path id="Vector_52" d="M471.154 328.307C471.18 332.498 469.636 336.546 466.825 339.654C464.044 342.706 459.903 344.73 455.725 343.893C451.878 343.122 448.751 339.759 449.141 335.691C449.206 334.81 449.462 333.954 449.892 333.182C450.321 332.41 450.914 331.741 451.629 331.221C452.344 330.702 453.163 330.345 454.03 330.174C454.897 330.004 455.79 330.025 456.648 330.235C460.303 331.184 461.759 336.451 458.714 338.924C457.983 339.517 456.933 338.479 457.671 337.881C458.126 337.465 458.469 336.941 458.669 336.358C458.869 335.775 458.92 335.152 458.817 334.544C458.713 333.936 458.459 333.364 458.077 332.88C457.696 332.397 457.199 332.016 456.632 331.774C455.963 331.56 455.254 331.501 454.559 331.601C453.864 331.701 453.201 331.958 452.62 332.353C452.039 332.747 451.556 333.269 451.206 333.878C450.856 334.487 450.65 335.167 450.602 335.868C450.36 339.297 452.988 341.88 456.209 342.488C459.695 343.146 463.15 341.362 465.512 338.9C468.219 336.041 469.712 332.244 469.679 328.307C469.685 328.116 469.766 327.934 469.903 327.801C470.041 327.668 470.225 327.594 470.416 327.594C470.608 327.594 470.792 327.668 470.929 327.801C471.067 327.934 471.148 328.116 471.154 328.307V328.307Z" fill="#313131"/>
<path id="Vector_53" d="M484.212 322.597L484.185 321.614C486.014 321.563 487.627 321.448 488.839 320.563C489.183 320.297 489.465 319.961 489.667 319.577C489.87 319.193 489.987 318.769 490.01 318.336C490.032 318.071 489.992 317.805 489.893 317.558C489.795 317.311 489.641 317.09 489.443 316.913C488.986 316.635 488.461 316.486 487.926 316.481C487.39 316.476 486.864 316.616 486.401 316.886L485.587 317.259L487.147 305.855L488.122 305.989L486.794 315.689C487.338 315.487 487.923 315.425 488.497 315.508C489.07 315.59 489.614 315.815 490.078 316.161C490.391 316.434 490.636 316.776 490.795 317.159C490.953 317.542 491.021 317.957 490.993 318.37C490.964 318.953 490.809 319.522 490.537 320.038C490.265 320.554 489.884 321.004 489.419 321.357C487.862 322.495 485.838 322.551 484.212 322.597Z" fill="#313131"/>
<path id="Vector_54" d="M498.237 306.826H492.94V307.809H498.237V306.826Z" fill="#313131"/>
<path id="Vector_55" d="M481.518 306.826H476.222V307.809H481.518V306.826Z" fill="#313131"/>
<path id="Vector_56" d="M467.604 353.781C478.388 356.874 489.867 356.551 500.461 352.856C500.667 352.782 500.874 352.709 501.075 352.635C498.579 350.709 495.755 349.25 492.741 348.327C492.954 347.571 492.95 346.77 492.731 346.016C492.432 345.06 491.833 344.226 491.023 343.638C490.212 343.049 489.233 342.738 488.231 342.751H481.819C480.82 342.738 479.842 343.048 479.033 343.635C478.224 344.223 477.627 345.056 477.33 346.011C477.11 346.767 477.107 347.57 477.32 348.327C474.665 349.14 472.155 350.37 469.885 351.971C469.428 352.291 468.985 352.625 468.558 352.974C468.233 353.235 467.913 353.505 467.604 353.781Z" fill="#313131"/>
<path id="Vector_57" d="M453.56 308.576C453.56 312.392 455.173 315.647 457.435 316.891C458.054 317.238 458.751 317.423 459.461 317.427C459.619 317.427 459.776 317.418 459.933 317.398C462.962 317.039 465.362 313.223 465.362 308.576C465.362 304.854 463.822 301.663 461.649 300.36C460.992 299.952 460.235 299.732 459.461 299.725C458.801 299.727 458.152 299.887 457.568 300.193C456.9 300.545 456.308 301.026 455.827 301.609C454.289 303.6 453.488 306.062 453.56 308.576V308.576Z" fill="#3F3D56"/>
<path id="Vector_58" d="M498.779 294.317C499.215 295.03 499.397 295.87 499.293 296.7C499.19 297.529 498.807 298.299 498.209 298.883C496.78 300.479 494.502 300.58 492.524 300.283C490.304 299.951 487.95 298.911 485.702 299.612C483.787 300.209 482.42 301.947 480.43 302.383C478.666 302.77 476.555 302.258 475.937 300.377C475.639 299.473 477.063 299.085 477.359 299.984C477.759 301.201 479.488 301.177 480.477 300.84C482.064 300.3 483.287 298.986 484.846 298.358C486.706 297.783 488.696 297.788 490.552 298.374C492.317 298.771 494.347 299.36 496.105 298.618C497.406 298.069 498.441 296.339 497.505 295.062C496.943 294.295 498.223 293.558 498.779 294.317V294.317Z" fill="#313131"/>
<path id="Vector_59" d="M639.045 302.697H556.639C554.91 302.697 553.251 302.01 552.029 300.787C550.806 299.565 550.119 297.907 550.119 296.178C550.119 294.448 550.806 292.79 552.029 291.568C553.251 290.345 554.91 289.658 556.639 289.658H639.045C640.774 289.658 642.432 290.345 643.655 291.568C644.878 292.79 645.565 294.448 645.565 296.178C645.565 297.907 644.878 299.565 643.655 300.787C642.432 302.01 640.774 302.697 639.045 302.697V302.697Z" fill="#62AC43"/>
<path id="Vector_60" d="M665.937 324.699H556.639C554.91 324.699 553.251 324.013 552.029 322.79C550.806 321.567 550.119 319.909 550.119 318.18C550.119 316.451 550.806 314.793 552.029 313.57C553.251 312.348 554.91 311.661 556.639 311.661H665.937C667.666 311.661 669.325 312.348 670.547 313.57C671.77 314.793 672.457 316.451 672.457 318.18C672.457 319.909 671.77 321.567 670.547 322.79C669.325 324.013 667.666 324.699 665.937 324.699V324.699Z" fill="#62AC43"/>
<g id="Group 548">
<path id="Vector_61" opacity="0.1" d="M1095.13 555.33C1068.57 610.14 1014.61 646.79 958.71 670.96C913.954 690.184 866.644 702.809 818.26 708.44C808.993 709.54 799.697 710.394 790.37 711C766.538 712.554 742.629 712.527 718.8 710.92C704.467 709.967 690.183 708.444 675.95 706.35C626.494 699.135 578.278 685.095 532.68 664.63C519.52 658.704 506.627 652.234 494 645.22C472.91 633.531 452.703 620.316 433.54 605.68C429.3 602.44 425.113 599.13 420.98 595.75L419.28 594.36C416.03 591.68 412.81 588.94 409.54 586.28C404.105 581.727 398.335 577.589 392.28 573.9C391.87 573.66 391.46 573.42 391.04 573.19C389.92 572.54 388.78 571.93 387.62 571.35C385.23 570.146 382.78 569.064 380.28 568.11V413H565.87V447.53H647.32V194.95H743.19V295.95H790.61V236.15H829.79V172.27H847.79V135.07C849.35 135.64 850.91 136.23 852.46 136.82V172.27H869.98V236.19H909.13V295.99H966.86V523.82H1058.62V358.13H1088.19C1115.06 420.8 1124.74 494.25 1095.13 555.33Z" fill="#62AC43"/>
<path id="Vector_62" d="M695.423 623.024H404.198C400.532 623.02 397.017 621.562 394.424 618.969C391.832 616.377 390.373 612.862 390.369 609.195V213.846C390.373 210.179 391.832 206.664 394.424 204.072C397.017 201.479 400.532 200.021 404.198 200.017H695.423C699.089 200.021 702.604 201.479 705.197 204.072C707.789 206.664 709.248 210.179 709.252 213.846V609.195C709.248 612.862 707.789 616.377 705.197 618.969C702.604 621.562 699.089 623.02 695.423 623.024V623.024Z" fill="white"/>
<path id="Vector_63" d="M428.487 301.795C428.478 308.915 429.878 315.965 432.607 322.541C435.337 329.116 439.341 335.086 444.389 340.106C444.812 340.524 445.245 340.942 445.683 341.35C448.319 343.813 451.195 346.005 454.268 347.895C454.858 348.258 455.448 348.608 456.053 348.947C459.161 350.698 462.436 352.136 465.829 353.24C466.414 353.431 467.009 353.613 467.604 353.78C478.389 356.873 489.867 356.551 500.461 352.856C500.667 352.782 500.874 352.709 501.075 352.635C510.375 349.251 518.569 343.382 524.764 335.665C530.959 327.948 534.919 318.679 536.212 308.868C537.505 299.056 536.082 289.078 532.097 280.02C528.113 270.961 521.719 263.169 513.614 257.492C505.508 251.815 496 248.47 486.125 247.822C476.25 247.174 466.387 249.247 457.608 253.815C448.83 258.384 441.473 265.273 436.338 273.733C431.204 282.193 428.488 291.899 428.487 301.795V301.795Z" fill="white"/>
<path id="Vector_64" d="M485.559 337.685C500.093 337.685 511.875 325.902 511.875 311.368C511.875 296.834 500.093 285.052 485.559 285.052C471.024 285.052 459.242 296.834 459.242 311.368C459.242 325.902 471.024 337.685 485.559 337.685Z" fill="#62AC43"/>
<path id="Vector_65" d="M506.175 308.576C506.175 313.012 508.358 316.69 511.195 317.329C511.484 317.394 511.779 317.427 512.075 317.427C515.325 317.427 517.976 313.459 517.976 308.576C518.049 306.059 517.246 303.595 515.704 301.604C515.224 301.023 514.634 300.543 513.968 300.192C513.384 299.887 512.735 299.727 512.075 299.725C511.17 299.737 510.29 300.032 509.562 300.571C507.561 301.987 506.175 305.041 506.175 308.576Z" fill="#3F3D56"/>
<path id="Vector_66" d="M457.803 316.043C457.92 316.043 458.035 316.015 458.14 315.961C458.244 315.908 458.334 315.83 458.402 315.735C458.47 315.64 458.515 315.53 458.532 315.414C458.55 315.298 458.539 315.18 458.502 315.069C457.092 310.877 456.668 306.417 457.263 302.034C457.857 297.651 459.454 293.465 461.93 289.8C464.405 286.135 467.693 283.09 471.536 280.902C475.38 278.714 479.676 277.442 484.091 277.184C488.507 276.927 492.922 277.691 496.994 279.417C501.066 281.143 504.685 283.785 507.57 287.137C510.455 290.489 512.528 294.462 513.628 298.745C514.728 303.029 514.826 307.509 513.913 311.836C513.873 312.028 513.911 312.227 514.017 312.39C514.124 312.554 514.292 312.668 514.483 312.709C514.674 312.749 514.873 312.712 515.037 312.605C515.201 312.499 515.316 312.332 515.356 312.141C516.317 307.591 516.214 302.881 515.058 298.377C513.902 293.873 511.722 289.696 508.689 286.171C505.656 282.647 501.851 279.869 497.57 278.054C493.289 276.239 488.647 275.436 484.004 275.707C479.362 275.978 474.845 277.315 470.804 279.616C466.763 281.917 463.307 285.118 460.705 288.972C458.102 292.826 456.424 297.228 455.799 301.836C455.175 306.444 455.621 311.133 457.104 315.541C457.153 315.687 457.247 315.814 457.373 315.904C457.498 315.994 457.649 316.043 457.803 316.043V316.043Z" fill="#3F3D56"/>
<path id="Vector_67" d="M482.577 357.36C477.373 357.365 472.195 356.637 467.195 355.198C466.607 355.033 465.99 354.845 465.369 354.642C461.885 353.507 458.522 352.031 455.329 350.232C454.731 349.897 454.129 349.542 453.494 349.15C450.338 347.209 447.383 344.957 444.675 342.428C444.228 342.011 443.786 341.583 443.353 341.156C434.836 332.664 429.304 321.638 427.589 309.734C425.874 297.83 428.068 285.69 433.841 275.14C439.614 264.589 448.655 256.197 459.606 251.223C470.556 246.25 482.825 244.964 494.569 247.559C506.312 250.153 516.897 256.489 524.732 265.613C532.568 274.738 537.231 286.158 538.021 298.159C538.812 310.16 535.686 322.094 529.115 332.167C522.544 342.24 512.882 349.909 501.58 354.021C501.377 354.095 501.167 354.17 500.957 354.245C495.05 356.314 488.835 357.367 482.577 357.36V357.36ZM482.577 249.181C472.163 249.182 461.984 252.272 453.328 258.061C444.672 263.85 437.929 272.077 433.951 281.701C429.974 291.325 428.942 301.912 430.985 312.123C433.029 322.334 438.056 331.709 445.431 339.061C445.839 339.464 446.261 339.872 446.689 340.271C449.254 342.667 452.052 344.799 455.041 346.638C455.643 347.009 456.21 347.343 456.775 347.66C459.798 349.364 462.984 350.763 466.284 351.837C466.868 352.028 467.445 352.204 468.002 352.36C478.496 355.372 489.665 355.058 499.973 351.464L500.569 351.249C512.193 347.018 521.956 338.826 528.141 328.113C534.326 317.4 536.54 304.85 534.392 292.667C532.244 280.484 525.873 269.448 516.398 261.495C506.922 253.543 494.947 249.183 482.577 249.181L482.577 249.181Z" fill="#BEBEBE"/>
<path id="Vector_68" d="M695.423 623.024H404.198C400.532 623.02 397.017 621.562 394.424 618.969C391.832 616.377 390.373 612.862 390.369 609.195V213.846C390.373 210.179 391.832 206.664 394.424 204.072C397.017 201.479 400.532 200.021 404.198 200.017H695.423C699.089 200.021 702.604 201.479 705.197 204.072C707.789 206.664 709.248 210.179 709.252 213.846V609.195C709.248 612.862 707.789 616.377 705.197 618.969C702.604 621.562 699.089 623.02 695.423 623.024V623.024ZM404.198 201.644C400.963 201.647 397.862 202.934 395.574 205.222C393.287 207.509 392 210.611 391.996 213.846V609.195C392 612.43 393.287 615.532 395.574 617.819C397.862 620.107 400.963 621.394 404.198 621.397H695.423C698.658 621.394 701.759 620.107 704.047 617.819C706.334 615.532 707.621 612.43 707.625 609.195V213.846C707.621 210.611 706.334 207.509 704.047 205.222C701.759 202.934 698.658 201.647 695.423 201.644H404.198Z" fill="#3F3D56"/>
<path id="Vector_69" d="M638.925 409.089H433.684C431.955 409.089 430.296 408.402 429.074 407.179C427.851 405.957 427.164 404.298 427.164 402.569C427.164 400.84 427.851 399.182 429.074 397.96C430.296 396.737 431.955 396.05 433.684 396.05H638.925C640.654 396.05 642.312 396.737 643.535 397.96C644.757 399.182 645.444 400.84 645.444 402.569C645.444 404.298 644.757 405.957 643.535 407.179C642.312 408.402 640.654 409.089 638.925 409.089V409.089Z" fill="#BEBEBE"/>
<path id="Vector_70" d="M665.817 431.091H433.684C431.955 431.091 430.296 430.404 429.074 429.182C427.851 427.959 427.164 426.301 427.164 424.572C427.164 422.843 427.851 421.185 429.074 419.962C430.296 418.74 431.955 418.053 433.684 418.053H665.817C667.546 418.053 669.204 418.74 670.427 419.962C671.65 421.185 672.336 422.843 672.336 424.572C672.336 426.301 671.65 427.959 670.427 429.182C669.204 430.404 667.546 431.091 665.817 431.091V431.091Z" fill="#BEBEBE"/>
<path id="Vector_71" d="M638.925 481.662H433.684C431.956 481.66 430.3 480.972 429.079 479.749C427.858 478.527 427.172 476.87 427.172 475.142C427.172 473.415 427.858 471.758 429.079 470.535C430.3 469.313 431.956 468.625 433.684 468.623H638.925C640.654 468.623 642.312 469.31 643.535 470.533C644.757 471.755 645.444 473.413 645.444 475.142C645.444 476.871 644.757 478.53 643.535 479.752C642.312 480.975 640.654 481.662 638.925 481.662V481.662Z" fill="#BEBEBE"/>
<path id="Vector_72" d="M665.817 503.664H433.684C431.956 503.662 430.3 502.974 429.079 501.752C427.858 500.53 427.172 498.873 427.172 497.145C427.172 495.417 427.858 493.76 429.079 492.538C430.3 491.316 431.956 490.628 433.684 490.626H665.817C667.546 490.626 669.204 491.313 670.427 492.535C671.65 493.758 672.336 495.416 672.336 497.145C672.336 498.874 671.65 500.532 670.427 501.755C669.204 502.977 667.546 503.664 665.817 503.664Z" fill="#BEBEBE"/>
<path id="Vector_73" d="M638.925 554.235H433.684C431.955 554.235 430.296 553.548 429.074 552.325C427.851 551.103 427.164 549.444 427.164 547.715C427.164 545.986 427.851 544.328 429.074 543.106C430.296 541.883 431.955 541.196 433.684 541.196H638.925C640.654 541.196 642.312 541.883 643.535 543.106C644.757 544.328 645.444 545.986 645.444 547.715C645.444 549.444 644.757 551.103 643.535 552.325C642.312 553.548 640.654 554.235 638.925 554.235V554.235Z" fill="#BEBEBE"/>
<path id="Vector_74" d="M665.817 576.237H433.684C431.955 576.237 430.296 575.55 429.074 574.328C427.851 573.105 427.164 571.447 427.164 569.718C427.164 567.989 427.851 566.331 429.074 565.108C430.296 563.886 431.955 563.199 433.684 563.199H665.817C667.546 563.199 669.204 563.886 670.427 565.108C671.65 566.331 672.336 567.989 672.336 569.718C672.336 571.447 671.65 573.105 670.427 574.328C669.204 575.55 667.546 576.237 665.817 576.237V576.237Z" fill="#BEBEBE"/>
</g>
<g id="checkboxGreen">
<path id="Vector_75" d="M715.303 487C706.862 486.991 698.502 488.645 690.701 491.869C682.9 495.092 675.811 499.822 669.839 505.788C663.866 511.753 659.129 518.837 655.896 526.635C652.664 534.432 651 542.79 651 551.231C651 559.672 652.664 568.031 655.896 575.828C659.129 583.626 663.866 590.71 669.838 596.675C675.81 602.641 682.899 607.371 690.701 610.594C698.502 613.818 706.862 615.473 715.303 615.463H715.303C732.319 615.433 748.628 608.653 760.649 596.61C772.67 584.568 779.422 568.247 779.422 551.232C779.422 534.216 772.67 517.896 760.649 505.853C748.628 493.811 732.319 487.03 715.303 487V487Z" fill="#62AC43"/>
<path id="f276b720-7c73-4755-84a7-b208d54eb1fc" d="M709.209 577.907C707.518 577.91 705.872 577.363 704.519 576.349L704.435 576.286L686.771 562.774C685.121 561.506 684.042 559.636 683.77 557.573C683.499 555.51 684.057 553.424 685.323 551.772C686.589 550.121 688.459 549.04 690.521 548.767C692.584 548.493 694.671 549.05 696.323 550.315L707.764 559.088L734.8 523.817C735.427 522.999 736.209 522.313 737.101 521.797C737.993 521.281 738.978 520.947 740 520.812C741.021 520.677 742.06 520.744 743.055 521.01C744.05 521.277 744.984 521.736 745.801 522.363L745.801 522.363L745.804 522.365L745.636 522.598L745.808 522.365C747.458 523.633 748.537 525.504 748.809 527.566C749.081 529.629 748.524 531.716 747.259 533.368L715.459 574.837C714.724 575.792 713.778 576.565 712.695 577.096C711.612 577.627 710.422 577.901 709.216 577.898L709.209 577.907Z" fill="white"/>
</g>
</g>
</svg>
